<svg width="22" height="22" viewBox="0 0 22 22" fill="none" xmlns="http://www.w3.org/2000/svg">
<path d="M19.9479 0.5H2.05207C1.19566 0.5 0.5 1.17484 0.5 2.00393V19.9961C0.5 20.8279 1.19566 21.5 2.05207 21.5H19.9479C20.8043 21.5 21.5 20.8252 21.5 19.9961V2.00393C21.5 1.17209 20.8043 0.5 19.9479 0.5ZM6.86624 18.0817H3.69559V8.59811H6.86624V18.0817ZM5.28092 7.30352H5.26152C4.19724 7.30352 3.5099 6.57634 3.5099 5.66461C3.5099 4.75289 4.21941 4.02571 5.30309 4.02571C6.38676 4.02571 7.05471 4.7336 7.07688 5.66461C7.07688 6.57358 6.38953 7.30352 5.28369 7.30352H5.28092ZM18.3044 18.0817H15.1338V13.008C15.1338 11.7327 14.6737 10.8623 13.5263 10.8623C12.6505 10.8623 12.1294 11.449 11.8994 12.0164C11.8162 12.2202 11.794 12.5012 11.794 12.7849V18.0817H8.6234C8.6234 18.0817 8.66497 9.4878 8.6234 8.59811H11.794V9.94229C12.2153 9.29499 12.9692 8.37775 14.6515 8.37775C16.7385 8.37775 18.3044 9.73295 18.3044 12.6472V18.0845V18.0817Z" fill="black"/>
</svg>
